<?xml version="1.0" encoding="UTF-8"?>
<svg xmlns="http://www.w3.org/2000/svg" xmlns:xlink="http://www.w3.org/1999/xlink" width="3840" height="2160" viewBox="0 0 3840 2160">
<defs>
<linearGradient id="linear-pattern-0" gradientUnits="userSpaceOnUse" x1="-0.000000295993" y1="0" x2="1.00518" y2="0" gradientTransform="matrix(-3821.05, 2147.37, -2147.37, -3821.05, 3840.42, 0.75)">
<stop offset="0" stop-color="rgb(1.176453%, 53.33252%, 65.097046%)" stop-opacity="1"/>
<stop offset="0.00390625" stop-color="rgb(1.176453%, 53.106689%, 65.097046%)" stop-opacity="1"/>
<stop offset="0.0078125" stop-color="rgb(1.176453%, 52.880859%, 65.097046%)" stop-opacity="1"/>
<stop offset="0.0117188" stop-color="rgb(1.176453%, 52.655029%, 65.097046%)" stop-opacity="1"/>
<stop offset="0.015625" stop-color="rgb(1.176453%, 52.429199%, 65.097046%)" stop-opacity="1"/>
<stop offset="0.0195313" stop-color="rgb(1.176453%, 52.201843%, 65.097046%)" stop-opacity="1"/>
<stop offset="0.0234375" stop-color="rgb(1.176453%, 51.976013%, 65.097046%)" stop-opacity="1"/>
<stop offset="0.0273438" stop-color="rgb(1.176453%, 51.750183%, 65.097046%)" stop-opacity="1"/>
<stop offset="0.03125" stop-color="rgb(1.176453%, 51.524353%, 65.097046%)" stop-opacity="1"/>
<stop offset="0.0351563" stop-color="rgb(1.176453%, 51.298523%, 65.097046%)" stop-opacity="1"/>
<stop offset="0.0390625" stop-color="rgb(1.176453%, 51.072693%, 65.097046%)" stop-opacity="1"/>
<stop offset="0.0429688" stop-color="rgb(1.176453%, 50.846863%, 65.097046%)" stop-opacity="1"/>
<stop offset="0.046875" stop-color="rgb(1.176453%, 50.621033%, 65.097046%)" stop-opacity="1"/>
<stop offset="0.0507813" stop-color="rgb(1.176453%, 50.395203%, 65.097046%)" stop-opacity="1"/>
<stop offset="0.0546875" stop-color="rgb(1.176453%, 50.169373%, 65.097046%)" stop-opacity="1"/>
<stop offset="0.0585938" stop-color="rgb(1.176453%, 49.943542%, 65.097046%)" stop-opacity="1"/>
<stop offset="0.0625" stop-color="rgb(1.176453%, 49.717712%, 65.097046%)" stop-opacity="1"/>
<stop offset="0.0664062" stop-color="rgb(1.176453%, 49.490356%, 65.097046%)" stop-opacity="1"/>
<stop offset="0.0703125" stop-color="rgb(1.176453%, 49.264526%, 65.097046%)" stop-opacity="1"/>
<stop offset="0.0742188" stop-color="rgb(1.176453%, 49.038696%, 65.097046%)" stop-opacity="1"/>
<stop offset="0.078125" stop-color="rgb(1.176453%, 48.812866%, 65.097046%)" stop-opacity="1"/>
<stop offset="0.0820313" stop-color="rgb(1.176453%, 48.587036%, 65.097046%)" stop-opacity="1"/>
<stop offset="0.0859375" stop-color="rgb(1.176453%, 48.361206%, 65.097046%)" stop-opacity="1"/>
<stop offset="0.0898438" stop-color="rgb(1.176453%, 48.135376%, 65.097046%)" stop-opacity="1"/>
<stop offset="0.09375" stop-color="rgb(1.176453%, 47.909546%, 65.097046%)" stop-opacity="1"/>
<stop offset="0.0976563" stop-color="rgb(1.176453%, 47.683716%, 65.097046%)" stop-opacity="1"/>
<stop offset="0.101563" stop-color="rgb(1.176453%, 47.457886%, 65.097046%)" stop-opacity="1"/>
<stop offset="0.105469" stop-color="rgb(1.176453%, 47.23053%, 65.097046%)" stop-opacity="1"/>
<stop offset="0.109375" stop-color="rgb(1.176453%, 47.0047%, 65.097046%)" stop-opacity="1"/>
<stop offset="0.113281" stop-color="rgb(1.176453%, 46.77887%, 65.097046%)" stop-opacity="1"/>
<stop offset="0.117188" stop-color="rgb(1.176453%, 46.55304%, 65.097046%)" stop-opacity="1"/>
<stop offset="0.121094" stop-color="rgb(1.176453%, 46.327209%, 65.097046%)" stop-opacity="1"/>
<stop offset="0.125" stop-color="rgb(1.176453%, 46.101379%, 65.097046%)" stop-opacity="1"/>
<stop offset="0.128906" stop-color="rgb(1.176453%, 45.875549%, 65.097046%)" stop-opacity="1"/>
<stop offset="0.132812" stop-color="rgb(1.176453%, 45.649719%, 65.097046%)" stop-opacity="1"/>
<stop offset="0.136719" stop-color="rgb(1.176453%, 45.423889%, 65.097046%)" stop-opacity="1"/>
<stop offset="0.140625" stop-color="rgb(1.176453%, 45.198059%, 65.097046%)" stop-opacity="1"/>
<stop offset="0.144531" stop-color="rgb(1.176453%, 44.972229%, 65.097046%)" stop-opacity="1"/>
<stop offset="0.148438" stop-color="rgb(1.176453%, 44.746399%, 65.097046%)" stop-opacity="1"/>
<stop offset="0.152344" stop-color="rgb(1.176453%, 44.519043%, 65.097046%)" stop-opacity="1"/>
<stop offset="0.15625" stop-color="rgb(1.176453%, 44.293213%, 65.097046%)" stop-opacity="1"/>
<stop offset="0.160156" stop-color="rgb(1.176453%, 44.067383%, 65.097046%)" stop-opacity="1"/>
<stop offset="0.164063" stop-color="rgb(1.176453%, 43.841553%, 65.097046%)" stop-opacity="1"/>
<stop offset="0.167969" stop-color="rgb(1.176453%, 43.615723%, 65.097046%)" stop-opacity="1"/>
<stop offset="0.171875" stop-color="rgb(1.176453%, 43.389893%, 65.097046%)" stop-opacity="1"/>
<stop offset="0.175781" stop-color="rgb(1.176453%, 43.164062%, 65.097046%)" stop-opacity="1"/>
<stop offset="0.179688" stop-color="rgb(1.176453%, 42.938232%, 65.097046%)" stop-opacity="1"/>
<stop offset="0.183594" stop-color="rgb(1.176453%, 42.712402%, 65.097046%)" stop-opacity="1"/>
<stop offset="0.1875" stop-color="rgb(1.176453%, 42.486572%, 65.097046%)" stop-opacity="1"/>
<stop offset="0.191406" stop-color="rgb(1.176453%, 42.259216%, 65.097046%)" stop-opacity="1"/>
<stop offset="0.195313" stop-color="rgb(1.176453%, 42.033386%, 65.097046%)" stop-opacity="1"/>
<stop offset="0.199219" stop-color="rgb(1.176453%, 41.807556%, 65.097046%)" stop-opacity="1"/>
<stop offset="0.203125" stop-color="rgb(1.176453%, 41.581726%, 65.097046%)" stop-opacity="1"/>
<stop offset="0.207031" stop-color="rgb(1.176453%, 41.355896%, 65.097046%)" stop-opacity="1"/>
<stop offset="0.210938" stop-color="rgb(1.176453%, 41.130066%, 65.097046%)" stop-opacity="1"/>
<stop offset="0.214844" stop-color="rgb(1.176453%, 40.904236%, 65.097046%)" stop-opacity="1"/>
<stop offset="0.21875" stop-color="rgb(1.176453%, 40.678406%, 65.097046%)" stop-opacity="1"/>
<stop offset="0.222656" stop-color="rgb(1.176453%, 40.371704%, 65.04364%)" stop-opacity="1"/>
<stop offset="0.226563" stop-color="rgb(1.176453%, 40.065002%, 64.990234%)" stop-opacity="1"/>
<stop offset="0.230469" stop-color="rgb(1.176453%, 39.616394%, 64.845276%)" stop-opacity="1"/>
<stop offset="0.234375" stop-color="rgb(1.176453%, 39.169312%, 64.700317%)" stop-opacity="1"/>
<stop offset="0.238281" stop-color="rgb(1.176453%, 38.720703%, 64.553833%)" stop-opacity="1"/>
<stop offset="0.242188" stop-color="rgb(1.176453%, 38.273621%, 64.408875%)" stop-opacity="1"/>
<stop offset="0.246094" stop-color="rgb(1.176453%, 37.825012%, 64.26239%)" stop-opacity="1"/>
<stop offset="0.25" stop-color="rgb(1.176453%, 37.37793%, 64.117432%)" stop-opacity="1"/>
<stop offset="0.253906" stop-color="rgb(1.176453%, 36.929321%, 63.972473%)" stop-opacity="1"/>
<stop offset="0.257812" stop-color="rgb(1.176453%, 36.482239%, 63.827515%)" stop-opacity="1"/>
<stop offset="0.261719" stop-color="rgb(1.176453%, 36.03363%, 63.68103%)" stop-opacity="1"/>
<stop offset="0.265625" stop-color="rgb(1.176453%, 35.586548%, 63.536072%)" stop-opacity="1"/>
<stop offset="0.269531" stop-color="rgb(1.176453%, 35.139465%, 63.389587%)" stop-opacity="1"/>
<stop offset="0.273438" stop-color="rgb(1.176453%, 34.692383%, 63.244629%)" stop-opacity="1"/>
<stop offset="0.277344" stop-color="rgb(1.176453%, 34.243774%, 63.098145%)" stop-opacity="1"/>
<stop offset="0.28125" stop-color="rgb(1.176453%, 33.796692%, 62.953186%)" stop-opacity="1"/>
<stop offset="0.285156" stop-color="rgb(1.176453%, 33.348083%, 62.808228%)" stop-opacity="1"/>
<stop offset="0.289063" stop-color="rgb(1.176453%, 32.901001%, 62.663269%)" stop-opacity="1"/>
<stop offset="0.292969" stop-color="rgb(1.176453%, 32.452393%, 62.516785%)" stop-opacity="1"/>
<stop offset="0.296875" stop-color="rgb(1.176453%, 32.00531%, 62.371826%)" stop-opacity="1"/>
<stop offset="0.300781" stop-color="rgb(1.176453%, 31.556702%, 62.225342%)" stop-opacity="1"/>
<stop offset="0.304688" stop-color="rgb(1.176453%, 31.109619%, 62.080383%)" stop-opacity="1"/>
<stop offset="0.308594" stop-color="rgb(1.176453%, 30.661011%, 61.935425%)" stop-opacity="1"/>
<stop offset="0.3125" stop-color="rgb(1.176453%, 30.213928%, 61.790466%)" stop-opacity="1"/>
<stop offset="0.316406" stop-color="rgb(1.176453%, 29.76532%, 61.643982%)" stop-opacity="1"/>
<stop offset="0.320313" stop-color="rgb(1.176453%, 29.318237%, 61.499023%)" stop-opacity="1"/>
<stop offset="0.324219" stop-color="rgb(1.176453%, 28.871155%, 61.352539%)" stop-opacity="1"/>
<stop offset="0.328125" stop-color="rgb(1.176453%, 28.424072%, 61.207581%)" stop-opacity="1"/>
<stop offset="0.332031" stop-color="rgb(1.176453%, 27.975464%, 61.061096%)" stop-opacity="1"/>
<stop offset="0.335938" stop-color="rgb(1.176453%, 27.528381%, 60.916138%)" stop-opacity="1"/>
<stop offset="0.339844" stop-color="rgb(1.176453%, 27.079773%, 60.771179%)" stop-opacity="1"/>
<stop offset="0.34375" stop-color="rgb(1.176453%, 26.63269%, 60.626221%)" stop-opacity="1"/>
<stop offset="0.347656" stop-color="rgb(1.176453%, 26.184082%, 60.479736%)" stop-opacity="1"/>
<stop offset="0.351563" stop-color="rgb(1.176453%, 25.737%, 60.334778%)" stop-opacity="1"/>
<stop offset="0.355469" stop-color="rgb(1.176453%, 25.288391%, 60.188293%)" stop-opacity="1"/>
<stop offset="0.359375" stop-color="rgb(1.176453%, 24.841309%, 60.043335%)" stop-opacity="1"/>
<stop offset="0.363281" stop-color="rgb(1.176453%, 24.3927%, 59.896851%)" stop-opacity="1"/>
<stop offset="0.367188" stop-color="rgb(1.176453%, 23.945618%, 59.751892%)" stop-opacity="1"/>
<stop offset="0.371094" stop-color="rgb(1.176453%, 23.498535%, 59.606934%)" stop-opacity="1"/>
<stop offset="0.375" stop-color="rgb(1.176453%, 23.051453%, 59.461975%)" stop-opacity="1"/>
<stop offset="0.378906" stop-color="rgb(1.176453%, 22.602844%, 59.315491%)" stop-opacity="1"/>
<stop offset="0.382813" stop-color="rgb(1.176453%, 22.155762%, 59.170532%)" stop-opacity="1"/>
<stop offset="0.386719" stop-color="rgb(1.176453%, 21.707153%, 59.024048%)" stop-opacity="1"/>
<stop offset="0.390625" stop-color="rgb(1.176453%, 21.260071%, 58.879089%)" stop-opacity="1"/>
<stop offset="0.394531" stop-color="rgb(1.176453%, 20.811462%, 58.734131%)" stop-opacity="1"/>
<stop offset="0.398438" stop-color="rgb(1.176453%, 20.36438%, 58.589172%)" stop-opacity="1"/>
<stop offset="0.402344" stop-color="rgb(1.176453%, 19.915771%, 58.442688%)" stop-opacity="1"/>
<stop offset="0.40625" stop-color="rgb(1.176453%, 19.468689%, 58.297729%)" stop-opacity="1"/>
<stop offset="0.410156" stop-color="rgb(1.176453%, 19.020081%, 58.151245%)" stop-opacity="1"/>
<stop offset="0.414063" stop-color="rgb(1.176453%, 18.572998%, 58.006287%)" stop-opacity="1"/>
<stop offset="0.417969" stop-color="rgb(1.176453%, 18.12439%, 57.859802%)" stop-opacity="1"/>
<stop offset="0.421875" stop-color="rgb(1.176453%, 17.677307%, 57.714844%)" stop-opacity="1"/>
<stop offset="0.425781" stop-color="rgb(1.176453%, 17.230225%, 57.569885%)" stop-opacity="1"/>
<stop offset="0.429688" stop-color="rgb(1.176453%, 16.783142%, 57.424927%)" stop-opacity="1"/>
<stop offset="0.433594" stop-color="rgb(1.176453%, 16.334534%, 57.278442%)" stop-opacity="1"/>
<stop offset="0.4375" stop-color="rgb(1.176453%, 15.887451%, 57.133484%)" stop-opacity="1"/>
<stop offset="0.441406" stop-color="rgb(1.176453%, 15.438843%, 56.987%)" stop-opacity="1"/>
<stop offset="0.445313" stop-color="rgb(1.176453%, 14.99176%, 56.842041%)" stop-opacity="1"/>
<stop offset="0.449219" stop-color="rgb(1.176453%, 14.543152%, 56.697083%)" stop-opacity="1"/>
<stop offset="0.453125" stop-color="rgb(1.176453%, 14.096069%, 56.552124%)" stop-opacity="1"/>
<stop offset="0.457031" stop-color="rgb(1.176453%, 13.647461%, 56.40564%)" stop-opacity="1"/>
<stop offset="0.460938" stop-color="rgb(1.176453%, 13.200378%, 56.260681%)" stop-opacity="1"/>
<stop offset="0.464844" stop-color="rgb(1.176453%, 12.75177%, 56.114197%)" stop-opacity="1"/>
<stop offset="0.46875" stop-color="rgb(1.176453%, 12.304688%, 55.969238%)" stop-opacity="1"/>
<stop offset="0.472656" stop-color="rgb(1.176453%, 11.857605%, 55.822754%)" stop-opacity="1"/>
<stop offset="0.476563" stop-color="rgb(1.176453%, 11.410522%, 55.677795%)" stop-opacity="1"/>
<stop offset="0.480469" stop-color="rgb(1.176453%, 10.961914%, 55.532837%)" stop-opacity="1"/>
<stop offset="0.484375" stop-color="rgb(1.176453%, 10.514832%, 55.387878%)" stop-opacity="1"/>
<stop offset="0.488281" stop-color="rgb(1.176453%, 10.066223%, 55.241394%)" stop-opacity="1"/>
<stop offset="0.492188" stop-color="rgb(1.176453%, 9.619141%, 55.096436%)" stop-opacity="1"/>
<stop offset="0.496094" stop-color="rgb(1.173401%, 9.281921%, 54.88739%)" stop-opacity="1"/>
<stop offset="0.5" stop-color="rgb(1.171875%, 8.944702%, 54.678345%)" stop-opacity="1"/>
<stop offset="0.503906" stop-color="rgb(1.164246%, 8.831787%, 54.341125%)" stop-opacity="1"/>
<stop offset="0.507813" stop-color="rgb(1.158142%, 8.720398%, 54.003906%)" stop-opacity="1"/>
<stop offset="0.511719" stop-color="rgb(1.150513%, 8.607483%, 53.666687%)" stop-opacity="1"/>
<stop offset="0.515625" stop-color="rgb(1.144409%, 8.494568%, 53.329468%)" stop-opacity="1"/>
<stop offset="0.519531" stop-color="rgb(1.138306%, 8.381653%, 52.992249%)" stop-opacity="1"/>
<stop offset="0.523438" stop-color="rgb(1.132202%, 8.270264%, 52.655029%)" stop-opacity="1"/>
<stop offset="0.527344" stop-color="rgb(1.124573%, 8.157349%, 52.31781%)" stop-opacity="1"/>
<stop offset="0.53125" stop-color="rgb(1.118469%, 8.044434%, 51.980591%)" stop-opacity="1"/>
<stop offset="0.535156" stop-color="rgb(1.11084%, 7.931519%, 51.643372%)" stop-opacity="1"/>
<stop offset="0.539063" stop-color="rgb(1.104736%, 7.820129%, 51.306152%)" stop-opacity="1"/>
<stop offset="0.542969" stop-color="rgb(1.098633%, 7.707214%, 50.967407%)" stop-opacity="1"/>
<stop offset="0.546875" stop-color="rgb(1.092529%, 7.595825%, 50.630188%)" stop-opacity="1"/>
<stop offset="0.550781" stop-color="rgb(1.0849%, 7.48291%, 50.292969%)" stop-opacity="1"/>
<stop offset="0.554688" stop-color="rgb(1.078796%, 7.369995%, 49.95575%)" stop-opacity="1"/>
<stop offset="0.558594" stop-color="rgb(1.071167%, 7.25708%, 49.61853%)" stop-opacity="1"/>
<stop offset="0.5625" stop-color="rgb(1.065063%, 7.145691%, 49.281311%)" stop-opacity="1"/>
<stop offset="0.566406" stop-color="rgb(1.05896%, 7.032776%, 48.944092%)" stop-opacity="1"/>
<stop offset="0.570313" stop-color="rgb(1.052856%, 6.921387%, 48.606873%)" stop-opacity="1"/>
<stop offset="0.574219" stop-color="rgb(1.045227%, 6.808472%, 48.269653%)" stop-opacity="1"/>
<stop offset="0.578125" stop-color="rgb(1.039124%, 6.695557%, 47.932434%)" stop-opacity="1"/>
<stop offset="0.582031" stop-color="rgb(1.031494%, 6.582642%, 47.595215%)" stop-opacity="1"/>
<stop offset="0.585938" stop-color="rgb(1.025391%, 6.471252%, 47.257996%)" stop-opacity="1"/>
<stop offset="0.589844" stop-color="rgb(1.019287%, 6.358337%, 46.920776%)" stop-opacity="1"/>
<stop offset="0.59375" stop-color="rgb(1.013184%, 6.245422%, 46.583557%)" stop-opacity="1"/>
<stop offset="0.597656" stop-color="rgb(1.005554%, 6.132507%, 46.246338%)" stop-opacity="1"/>
<stop offset="0.601563" stop-color="rgb(0.999451%, 6.021118%, 45.909119%)" stop-opacity="1"/>
<stop offset="0.605469" stop-color="rgb(0.991821%, 5.908203%, 45.570374%)" stop-opacity="1"/>
<stop offset="0.609375" stop-color="rgb(0.985718%, 5.796814%, 45.233154%)" stop-opacity="1"/>
<stop offset="0.613281" stop-color="rgb(0.979614%, 5.683899%, 44.895935%)" stop-opacity="1"/>
<stop offset="0.617188" stop-color="rgb(0.973511%, 5.570984%, 44.558716%)" stop-opacity="1"/>
<stop offset="0.621094" stop-color="rgb(0.965881%, 5.458069%, 44.221497%)" stop-opacity="1"/>
<stop offset="0.625" stop-color="rgb(0.959778%, 5.34668%, 43.884277%)" stop-opacity="1"/>
<stop offset="0.628906" stop-color="rgb(0.952148%, 5.233765%, 43.547058%)" stop-opacity="1"/>
<stop offset="0.632813" stop-color="rgb(0.946045%, 5.122375%, 43.209839%)" stop-opacity="1"/>
<stop offset="0.636719" stop-color="rgb(0.939941%, 5.00946%, 42.87262%)" stop-opacity="1"/>
<stop offset="0.640625" stop-color="rgb(0.933838%, 4.896545%, 42.5354%)" stop-opacity="1"/>
<stop offset="0.644531" stop-color="rgb(0.926208%, 4.78363%, 42.198181%)" stop-opacity="1"/>
<stop offset="0.648438" stop-color="rgb(0.920105%, 4.672241%, 41.860962%)" stop-opacity="1"/>
<stop offset="0.652344" stop-color="rgb(0.912476%, 4.559326%, 41.523743%)" stop-opacity="1"/>
<stop offset="0.65625" stop-color="rgb(0.906372%, 4.446411%, 41.186523%)" stop-opacity="1"/>
<stop offset="0.660156" stop-color="rgb(0.900269%, 4.333496%, 40.847778%)" stop-opacity="1"/>
<stop offset="0.664063" stop-color="rgb(0.894165%, 4.222107%, 40.510559%)" stop-opacity="1"/>
<stop offset="0.667969" stop-color="rgb(0.886536%, 4.109192%, 40.17334%)" stop-opacity="1"/>
<stop offset="0.671875" stop-color="rgb(0.880432%, 3.997803%, 39.836121%)" stop-opacity="1"/>
<stop offset="0.675781" stop-color="rgb(0.872803%, 3.884888%, 39.498901%)" stop-opacity="1"/>
<stop offset="0.679688" stop-color="rgb(0.866699%, 3.771973%, 39.161682%)" stop-opacity="1"/>
<stop offset="0.683594" stop-color="rgb(0.860596%, 3.659058%, 38.824463%)" stop-opacity="1"/>
<stop offset="0.6875" stop-color="rgb(0.854492%, 3.547668%, 38.487244%)" stop-opacity="1"/>
<stop offset="0.691406" stop-color="rgb(0.846863%, 3.434753%, 38.150024%)" stop-opacity="1"/>
<stop offset="0.695313" stop-color="rgb(0.840759%, 3.323364%, 37.812805%)" stop-opacity="1"/>
<stop offset="0.699219" stop-color="rgb(0.83313%, 3.210449%, 37.475586%)" stop-opacity="1"/>
<stop offset="0.703125" stop-color="rgb(0.827026%, 3.097534%, 37.138367%)" stop-opacity="1"/>
<stop offset="0.707031" stop-color="rgb(0.820923%, 2.984619%, 36.801147%)" stop-opacity="1"/>
<stop offset="0.710938" stop-color="rgb(0.814819%, 2.87323%, 36.463928%)" stop-opacity="1"/>
<stop offset="0.714844" stop-color="rgb(0.80719%, 2.760315%, 36.126709%)" stop-opacity="1"/>
<stop offset="0.71875" stop-color="rgb(0.801086%, 2.6474%, 35.78949%)" stop-opacity="1"/>
<stop offset="0.722656" stop-color="rgb(0.793457%, 2.534485%, 35.450745%)" stop-opacity="1"/>
<stop offset="0.726563" stop-color="rgb(0.787354%, 2.423096%, 35.113525%)" stop-opacity="1"/>
<stop offset="0.730469" stop-color="rgb(0.78125%, 2.378845%, 34.909058%)" stop-opacity="1"/>
<stop offset="0.734375" stop-color="rgb(0.775146%, 2.336121%, 34.70459%)" stop-opacity="1"/>
<stop offset="0.742188" stop-color="rgb(0.769043%, 2.323914%, 34.559631%)" stop-opacity="1"/>
<stop offset="0.75" stop-color="rgb(0.758362%, 2.301025%, 34.27124%)" stop-opacity="1"/>
<stop offset="0.757813" stop-color="rgb(0.746155%, 2.278137%, 33.982849%)" stop-opacity="1"/>
<stop offset="0.765625" stop-color="rgb(0.735474%, 2.255249%, 33.694458%)" stop-opacity="1"/>
<stop offset="0.773438" stop-color="rgb(0.723267%, 2.232361%, 33.406067%)" stop-opacity="1"/>
<stop offset="0.78125" stop-color="rgb(0.712585%, 2.209473%, 33.119202%)" stop-opacity="1"/>
<stop offset="0.789063" stop-color="rgb(0.700378%, 2.186584%, 32.830811%)" stop-opacity="1"/>
<stop offset="0.796875" stop-color="rgb(0.688171%, 2.16217%, 32.542419%)" stop-opacity="1"/>
<stop offset="0.804688" stop-color="rgb(0.67749%, 2.139282%, 32.254028%)" stop-opacity="1"/>
<stop offset="0.8125" stop-color="rgb(0.665283%, 2.116394%, 31.965637%)" stop-opacity="1"/>
<stop offset="0.820313" stop-color="rgb(0.654602%, 2.093506%, 31.677246%)" stop-opacity="1"/>
<stop offset="0.828125" stop-color="rgb(0.642395%, 2.070618%, 31.390381%)" stop-opacity="1"/>
<stop offset="0.835938" stop-color="rgb(0.631714%, 2.047729%, 31.10199%)" stop-opacity="1"/>
<stop offset="0.84375" stop-color="rgb(0.619507%, 2.024841%, 30.813599%)" stop-opacity="1"/>
<stop offset="0.851563" stop-color="rgb(0.608826%, 2.001953%, 30.525208%)" stop-opacity="1"/>
<stop offset="0.859375" stop-color="rgb(0.596619%, 1.979065%, 30.236816%)" stop-opacity="1"/>
<stop offset="0.867188" stop-color="rgb(0.584412%, 1.954651%, 29.948425%)" stop-opacity="1"/>
<stop offset="0.875" stop-color="rgb(0.57373%, 1.931763%, 29.66156%)" stop-opacity="1"/>
<stop offset="0.882813" stop-color="rgb(0.561523%, 1.908875%, 29.373169%)" stop-opacity="1"/>
<stop offset="0.890625" stop-color="rgb(0.550842%, 1.885986%, 29.084778%)" stop-opacity="1"/>
<stop offset="0.898438" stop-color="rgb(0.538635%, 1.863098%, 28.796387%)" stop-opacity="1"/>
<stop offset="0.90625" stop-color="rgb(0.527954%, 1.84021%, 28.507996%)" stop-opacity="1"/>
<stop offset="0.914063" stop-color="rgb(0.515747%, 1.817322%, 28.219604%)" stop-opacity="1"/>
<stop offset="0.921875" stop-color="rgb(0.505066%, 1.794434%, 27.932739%)" stop-opacity="1"/>
<stop offset="0.929688" stop-color="rgb(0.492859%, 1.771545%, 27.644348%)" stop-opacity="1"/>
<stop offset="0.9375" stop-color="rgb(0.482178%, 1.748657%, 27.355957%)" stop-opacity="1"/>
<stop offset="0.945313" stop-color="rgb(0.469971%, 1.724243%, 27.067566%)" stop-opacity="1"/>
<stop offset="0.953125" stop-color="rgb(0.457764%, 1.701355%, 26.779175%)" stop-opacity="1"/>
<stop offset="0.960938" stop-color="rgb(0.447083%, 1.678467%, 26.490784%)" stop-opacity="1"/>
<stop offset="0.96875" stop-color="rgb(0.434875%, 1.655579%, 26.203918%)" stop-opacity="1"/>
<stop offset="0.976563" stop-color="rgb(0.424194%, 1.63269%, 25.915527%)" stop-opacity="1"/>
<stop offset="0.984375" stop-color="rgb(0.411987%, 1.609802%, 25.627136%)" stop-opacity="1"/>
<stop offset="1" stop-color="rgb(0.39978%, 1.583862%, 25.289917%)" stop-opacity="1"/>
</linearGradient>
</defs>
<path fill-rule="nonzero" fill="url(#linear-pattern-0)" d="M 4762.527344 1641.554688 L 2918.316406 -1640.050781 L -922.527344 518.445312 L 921.683594 3800.050781 Z M 4762.527344 1641.554688 "/>
<path fill="none" stroke-width="50" stroke-linecap="butt" stroke-linejoin="miter" stroke="rgb(0.784302%, 2.352905%, 34.910583%)" stroke-opacity="1" stroke-miterlimit="10" d="M 13352.890625 24978.59375 C 17000 17159.492188 20468.398438 15146.015625 23072.890625 14872.890625 C 26093.789062 14556.015625 28647.617188 16507.617188 29784.296875 15335.703125 C 31245 13829.6875 27638.398438 9976.914062 28627.109375 7004.296875 C 29448.710938 4534.492188 33548.59375 2353.398438 46370 2452.890625 " transform="matrix(0.1, 0, 0, -0.1, 0, 2160)"/>
<path fill="none" stroke-width="50" stroke-linecap="butt" stroke-linejoin="miter" stroke="rgb(0.784302%, 3.137207%, 35.693359%)" stroke-opacity="1" stroke-miterlimit="10" d="M 46055.390625 2360.585938 C 43821.601562 2391.09375 41896.914062 2530.78125 40249.101562 2665.703125 C 38430.507812 2814.609375 36941.40625 2957.382812 35693.710938 3206.914062 C 32508.203125 3843.90625 30716.796875 4782.109375 29700.78125 5892.5 C 29295.78125 6335.117188 29024.6875 6793.085938 28866.09375 7263.203125 C 28488.203125 8382.8125 28699.6875 9612.695312 29056.015625 10764.296875 C 29645.117188 12668.398438 30636.484375 14380.78125 29837.109375 15303.007812 C 29806.601562 15338.085938 29775.898438 15374.101562 29740.3125 15406.796875 C 28540.78125 16509.492188 25888.710938 14538.203125 22912.5 14885 C 20841.484375 15126.289062 18417.890625 16554.296875 15596.796875 21105.78125 C 14899.21875 22236.914062 14158.515625 23542.382812 13410.3125 25061.796875 " transform="matrix(0.1, 0, 0, -0.1, 0, 2160)"/>
<path fill="none" stroke-width="50" stroke-linecap="butt" stroke-linejoin="miter" stroke="rgb(0.784302%, 3.921509%, 36.083984%)" stroke-opacity="1" stroke-miterlimit="10" d="M 45740.78125 2268.28125 C 43450.390625 2346.210938 41526.796875 2576.796875 39931.796875 2741.71875 C 38166.210938 2924.21875 36788.398438 3026.914062 35654.21875 3287.382812 C 32619.21875 3984.6875 30950.390625 4944.296875 29938.515625 6118.398438 C 29544.296875 6575.78125 29269.101562 7042.109375 29105 7522.1875 C 28713.710938 8665.898438 28876.796875 9910.3125 29189.414062 11040.898438 C 29706.914062 12912.8125 30649.882812 14513.28125 29795.898438 15379.21875 C 29763.710938 15411.796875 29733.28125 15447.5 29696.289062 15477.8125 C 28430.3125 16513.710938 25683.515625 14520.585938 22752.1875 14897.109375 C 20700.78125 15160.507812 18491.796875 16669.492188 15709.296875 21212.5 C 15011.71875 22351.71875 14245 23648.007812 13467.8125 25145 " transform="matrix(0.1, 0, 0, -0.1, 0, 2160)"/>
<path fill="none" stroke-width="50" stroke-linecap="butt" stroke-linejoin="miter" stroke="rgb(0.784302%, 4.704285%, 36.863708%)" stroke-opacity="1" stroke-miterlimit="10" d="M 45426.09375 2176.09375 C 43079.101562 2301.289062 41156.992188 2622.8125 39614.609375 2817.617188 C 37902.1875 3033.90625 36637.109375 3096.796875 35614.6875 3368.007812 C 32734.21875 4132.304688 31183.984375 5105.507812 30176.210938 6344.296875 C 29792.617188 6815.898438 29513.59375 7291.210938 29343.90625 7781.09375 C 28939.101562 8948.984375 29053.710938 10207.695312 29322.695312 11317.382812 C 29768.515625 13156.71875 30666.796875 14643.28125 29754.6875 15455.507812 C 29721.015625 15485.507812 29690.703125 15521.015625 29652.382812 15548.789062 C 28316.015625 16519.609375 25478.007812 14503.28125 22591.796875 14909.21875 C 20560 15194.882812 18570.898438 16788.007812 15821.796875 21319.296875 C 15125.390625 22467.304688 14331.484375 23753.710938 13525.3125 25228.203125 " transform="matrix(0.1, 0, 0, -0.1, 0, 2160)"/>
<path fill="none" stroke-width="50" stroke-linecap="butt" stroke-linejoin="miter" stroke="rgb(0.784302%, 5.488586%, 37.255859%)" stroke-opacity="1" stroke-miterlimit="10" d="M 45111.484375 2083.789062 C 42707.8125 2256.40625 40787.5 2668.90625 39297.304688 2893.59375 C 37638.515625 3143.710938 36488.085938 3166.914062 35575.195312 3448.59375 C 32854.882812 4288.007812 31417.304688 5265.585938 30413.984375 6570.195312 C 30040.585938 7055.585938 29758.007812 7540.195312 29582.8125 8040.117188 C 29164.609375 9232.109375 29230.585938 10504.609375 29456.09375 11593.984375 C 29830 13400.117188 30687.382812 14771.484375 29713.515625 15531.71875 C 29678.398438 15559.21875 29647.890625 15594.414062 29608.398438 15619.882812 C 28197.8125 16526.71875 25272.382812 14486.289062 22431.484375 14921.289062 C 20418.90625 15229.414062 18650.195312 16906.601562 15934.296875 21426.09375 C 15239.101562 22583.007812 14418.007812 23859.414062 13582.8125 25311.289062 " transform="matrix(0.1, 0, 0, -0.1, 0, 2160)"/>
<path fill="none" stroke-width="50" stroke-linecap="butt" stroke-linejoin="miter" stroke="rgb(0.784302%, 6.272888%, 38.035583%)" stroke-opacity="1" stroke-miterlimit="10" d="M 44796.914062 1991.484375 C 42336.601562 2211.484375 40418.515625 2715 38980 2969.609375 C 37375.195312 3253.515625 36342.304688 3236.992188 35535.703125 3529.21875 C 32983.59375 4453.59375 31650.390625 5424.804688 30651.71875 6796.09375 C 30288.398438 7294.882812 30002.5 7789.21875 29821.71875 8298.984375 C 29390.117188 9515.195312 29407.382812 10801.210938 29589.492188 11870.585938 C 29891.289062 13642.890625 30711.796875 14898.515625 29672.382812 15608.007812 C 29635.898438 15632.890625 29605.117188 15667.890625 29564.414062 15690.898438 C 28075.78125 16534.296875 25066.71875 14469.6875 22271.210938 14933.398438 C 20277.695312 15263.984375 18729.6875 17025.507812 16046.796875 21532.890625 C 15352.890625 22698.710938 14504.492188 23965.117188 13640.3125 25394.492188 " transform="matrix(0.1, 0, 0, -0.1, 0, 2160)"/>
<path fill="none" stroke-width="50" stroke-linecap="butt" stroke-linejoin="miter" stroke="rgb(0.784302%, 6.665039%, 38.426208%)" stroke-opacity="1" stroke-miterlimit="10" d="M 44482.304688 1899.21875 C 41965.3125 2166.601562 40049.882812 2761.09375 38662.695312 3045.507812 C 37112.304688 3363.398438 36201.015625 3306.40625 35496.210938 3609.6875 C 33123.90625 4630.78125 31883.203125 5583.203125 30889.414062 7021.992188 C 30535.898438 7533.789062 30246.992188 8038.28125 30060.585938 8558.007812 C 29615.507812 9798.28125 29584.101562 11097.382812 29722.8125 12147.1875 C 29952.5 13885.195312 30740 15025.117188 29631.210938 15684.21875 C 29593.59375 15706.601562 29562.109375 15741.210938 29520.507812 15761.914062 C 27950.195312 16541.71875 24860.78125 14453.28125 22110.78125 14945.507812 C 20136.289062 15298.789062 18809.414062 17144.492188 16159.296875 21639.609375 C 15466.71875 22814.414062 14591.015625 24070.703125 13697.695312 25477.695312 " transform="matrix(0.1, 0, 0, -0.1, 0, 2160)"/>
<path fill="none" stroke-width="50" stroke-linecap="butt" stroke-linejoin="miter" stroke="rgb(0.784302%, 7.446289%, 39.208984%)" stroke-opacity="1" stroke-miterlimit="10" d="M 44167.617188 1806.992188 C 41594.101562 2121.71875 39681.796875 2807.1875 38345.390625 3121.484375 C 36849.882812 3473.28125 35992.5 3261.601562 35456.71875 3690.3125 C 33102.1875 4374.492188 32115.585938 5740.78125 31127.109375 7247.890625 C 30783.203125 7772.382812 30491.40625 8287.304688 30299.492188 8816.914062 C 29841.015625 10081.40625 29760.78125 11393.085938 29856.210938 12423.710938 C 30013.789062 14126.71875 30771.71875 15151.914062 29590 15760.507812 C 29551.289062 15780.390625 29519.101562 15814.609375 29476.484375 15833.007812 C 27821.210938 16548.398438 24654.6875 14437.382812 21950.507812 14957.617188 C 19994.6875 15333.789062 18889.414062 17263.710938 16271.796875 21746.40625 C 15580.585938 22930.117188 14677.5 24176.40625 13755.195312 25560.898438 " transform="matrix(0.1, 0, 0, -0.1, 0, 2160)"/>
<path fill="none" stroke-width="50" stroke-linecap="butt" stroke-linejoin="miter" stroke="rgb(0.784302%, 8.227539%, 39.598083%)" stroke-opacity="1" stroke-miterlimit="10" d="M 43853.007812 1714.6875 C 41222.8125 2076.914062 39314.101562 2853.085938 38028.085938 3197.5 C 36587.890625 3583.085938 35834.882812 3315 35417.1875 3770.898438 C 33202.5 4469.6875 32347.5 5897.695312 31364.882812 7473.789062 C 31030.195312 8010.585938 30735.898438 8536.289062 30538.398438 9075.898438 C 30066.40625 10364.492188 29937.617188 11688.28125 29989.609375 12700.3125 C 30075.195312 14367.5 30806.484375 15279.6875 29548.90625 15836.796875 C 29509.21875 15854.296875 29476.015625 15887.8125 29432.5 15903.984375 C 27689.296875 16553.789062 24448.398438 14421.796875 21790.195312 14969.6875 C 19853.007812 15368.90625 18969.609375 17383.007812 16384.296875 21853.203125 C 15694.492188 23045.898438 14763.984375 24282.109375 13812.695312 25644.101562 " transform="matrix(0.1, 0, 0, -0.1, 0, 2160)"/>
<path fill="none" stroke-width="50" stroke-linecap="butt" stroke-linejoin="miter" stroke="rgb(0.784302%, 9.008789%, 40.380859%)" stroke-opacity="1" stroke-miterlimit="10" d="M 43538.398438 1622.382812 C 40851.484375 2031.992188 38947.109375 2898.984375 37710.78125 3273.515625 C 36326.40625 3692.8125 35677.304688 3368.28125 35377.695312 3851.484375 C 33302.695312 4564.804688 32578.90625 6053.90625 31602.617188 7699.6875 C 31276.914062 8248.710938 30980.3125 8785.390625 30777.304688 9334.804688 C 30291.914062 10647.617188 30114.414062 11983.007812 30122.890625 12976.914062 C 30136.914062 14607.617188 30844.101562 15409.101562 29507.695312 15913.007812 C 29467.1875 15928.28125 29432.8125 15961.015625 29388.59375 15975 C 27554.804688 16557.5 24242.109375 14406.601562 21629.804688 14981.796875 C 19711.09375 15404.296875 19050 17502.5 16496.796875 21959.882812 C 15808.398438 23161.71875 14850.507812 24387.8125 13870.195312 25727.304688 " transform="matrix(0.1, 0, 0, -0.1, 0, 2160)"/>
<path fill="none" stroke-width="50" stroke-linecap="butt" stroke-linejoin="miter" stroke="rgb(0.784302%, 9.812927%, 40.795898%)" stroke-opacity="1" stroke-miterlimit="10" d="M 43223.789062 1530.195312 C 40480.3125 1987.109375 38580.585938 2944.609375 37393.515625 3349.414062 C 36065.507812 3802.304688 35519.609375 3421.71875 35338.203125 3932.109375 C 33403.007812 4660 32809.6875 6209.609375 31840.3125 7925.585938 C 31523.398438 8486.484375 31224.804688 9034.414062 31016.210938 9593.789062 C 30517.382812 10930.703125 30291.484375 12277.109375 30256.289062 13253.398438 C 30198.90625 14846.914062 30883.90625 15540.390625 29466.484375 15989.296875 C 29425.3125 16002.304688 29389.492188 16034.101562 29344.609375 16046.09375 C 27418.203125 16559.101562 24035.585938 14391.796875 21469.492188 14993.90625 C 19568.984375 15439.804688 19130.585938 17622.1875 16609.296875 22066.71875 C 15922.382812 23277.617188 14936.992188 24493.398438 13927.617188 25810.507812 " transform="matrix(0.1, 0, 0, -0.1, 0, 2160)"/>
<path fill="none" stroke-width="50" stroke-linecap="butt" stroke-linejoin="miter" stroke="rgb(0.784302%, 10.594177%, 41.575623%)" stroke-opacity="1" stroke-miterlimit="10" d="M 42909.21875 1437.890625 C 40108.984375 1942.1875 38214.6875 2989.882812 37076.210938 3425.390625 C 35805.195312 3911.484375 35361.992188 3475 35298.710938 4012.617188 C 33503.28125 4755.117188 33040 6364.6875 32078.007812 8151.484375 C 31769.6875 8724.101562 31469.21875 9283.398438 31255.117188 9852.695312 C 30742.8125 11213.710938 30468.710938 12570.78125 30389.609375 13530 C 30261.40625 15085.390625 30925.507812 15673.984375 29425.390625 16065.507812 C 29383.398438 16076.484375 29346.210938 16107.109375 29300.585938 16117.109375 C 27280 16558.398438 23828.984375 14377.382812 21309.21875 15006.015625 C 19426.796875 15475.507812 19211.40625 17741.992188 16721.796875 22173.515625 C 16036.40625 23393.515625 15023.398438 24599.101562 13985.117188 25893.710938 " transform="matrix(0.1, 0, 0, -0.1, 0, 2160)"/>
<path fill="none" stroke-width="50" stroke-linecap="butt" stroke-linejoin="miter" stroke="rgb(0.784302%, 11.376953%, 41.967773%)" stroke-opacity="1" stroke-miterlimit="10" d="M 42594.492188 1345.585938 C 39737.695312 1897.304688 37849.492188 3034.882812 36758.90625 3501.40625 C 35545.390625 4020.390625 35204.414062 3528.28125 35259.21875 4093.203125 C 33603.59375 4850.3125 33269.6875 6519.414062 32315.78125 8377.382812 C 32015.78125 8961.601562 31713.710938 9532.5 31494.101562 10111.71875 C 30968.28125 11496.796875 30646.289062 12863.90625 30523.007812 13806.601562 C 30324.609375 15323.28125 31001.914062 16094.101562 29384.21875 16141.796875 C 29343.789062 16158.085938 29302.890625 16180.117188 29256.601562 16188.085938 C 27140.507812 16555.117188 23622.1875 14363.398438 21148.789062 15018.085938 C 19284.414062 15511.484375 19292.382812 17861.914062 16834.21875 22280.195312 C 16150.390625 23509.414062 15109.882812 24704.804688 14042.617188 25976.914062 " transform="matrix(0.1, 0, 0, -0.1, 0, 2160)"/>
<path fill="none" stroke-width="50" stroke-linecap="butt" stroke-linejoin="miter" stroke="rgb(0.784302%, 12.156677%, 42.747498%)" stroke-opacity="1" stroke-miterlimit="10" d="M 42279.882812 1253.398438 C 39366.484375 1852.382812 37485 3079.492188 36441.601562 3577.304688 C 35286.09375 4128.710938 35046.796875 3581.71875 35219.6875 4173.789062 C 33703.90625 4945.390625 33498.90625 6673.710938 32553.515625 8603.28125 C 32261.71875 9198.90625 31958.203125 9781.484375 31733.007812 10370.585938 C 31193.789062 11779.882812 30824.414062 13156.484375 30656.40625 14083.203125 C 30388.59375 15560.390625 31033.28125 16248.203125 29343.007812 16218.007812 C 29301.601562 16232.5 29259.609375 16253.007812 29212.695312 16259.21875 C 27000.195312 16549.21875 23415.390625 14349.882812 20988.515625 15030.195312 C 19141.914062 15547.695312 19373.59375 17982.109375 16946.71875 22386.992188 C 16264.492188 23625.3125 15196.40625 24810.507812 14100.117188 26060.117188 " transform="matrix(0.1, 0, 0, -0.1, 0, 2160)"/>
<path fill="none" stroke-width="50" stroke-linecap="butt" stroke-linejoin="miter" stroke="rgb(0.784302%, 12.939453%, 43.138123%)" stroke-opacity="1" stroke-miterlimit="10" d="M 41965.3125 1161.09375 C 38995.195312 1807.5 37121.09375 3123.515625 36124.296875 3653.28125 C 35027.5 4236.289062 34889.21875 3635 35180.195312 4254.414062 C 33804.21875 5040.585938 33727.382812 6827.617188 32791.210938 8829.101562 C 32507.304688 9436.09375 32202.617188 10030.507812 31971.914062 10629.609375 C 31419.21875 12063.007812 31002.890625 13448.710938 30789.6875 14359.6875 C 30453.515625 15796.992188 31064.609375 16402.304688 29301.796875 16294.296875 C 29259.492188 16306.992188 29216.210938 16325.898438 29168.710938 16330.195312 C 26859.492188 16540.703125 23208.515625 14336.914062 20828.203125 15042.304688 C 18999.21875 15584.21875 19455.117188 18102.304688 17059.21875 22493.789062 C 16378.59375 23741.289062 15282.890625 24916.210938 14157.617188 26143.28125 " transform="matrix(0.1, 0, 0, -0.1, 0, 2160)"/>
<path fill="none" stroke-width="50" stroke-linecap="butt" stroke-linejoin="miter" stroke="rgb(0.784302%, 13.719177%, 43.920898%)" stroke-opacity="1" stroke-miterlimit="10" d="M 41650.703125 1068.789062 C 38623.90625 1762.617188 36757.8125 3166.796875 35806.992188 3729.296875 C 34769.296875 4343.203125 34731.601562 3688.28125 35140.703125 4334.882812 C 33904.492188 5135.703125 33955.390625 6981.289062 33028.984375 9055 C 32752.8125 9673.28125 32447.109375 10279.609375 32210.78125 10888.515625 C 31644.6875 12346.09375 31181.992188 13740.507812 30923.085938 14636.289062 C 30519.414062 16033.085938 31100.3125 16235.195312 29260.703125 16370.507812 C 29216.09375 16373.789062 29172.890625 16398.710938 29124.6875 16401.289062 C 26718.59375 16529.609375 23001.484375 14324.414062 20667.8125 15054.414062 C 18856.40625 15621.015625 19536.71875 18222.695312 17171.71875 22600.585938 C 16492.8125 23857.304688 15369.414062 25021.796875 14215 26226.484375 " transform="matrix(0.1, 0, 0, -0.1, 0, 2160)"/>
<path fill="none" stroke-width="50" stroke-linecap="butt" stroke-linejoin="miter" stroke="rgb(0.784302%, 14.109802%, 44.309998%)" stroke-opacity="1" stroke-miterlimit="10" d="M 41336.09375 976.601562 C 38252.695312 1717.695312 36395.117188 3209.296875 35489.6875 3805.3125 C 34511.484375 4449.101562 34573.90625 3741.71875 35101.210938 4415.507812 C 34004.804688 5230.898438 34182.695312 7134.609375 33266.71875 9280.898438 C 32998.085938 9910.3125 32691.484375 10528.59375 32449.6875 11147.5 C 31870.117188 12629.21875 31361.71875 14032.109375 31056.484375 14912.890625 C 30586.484375 16268.90625 31144.21875 16382.109375 29219.492188 16446.796875 C 29174.21875 16448.28125 29129.609375 16471.40625 29080.78125 16472.304688 C 26577.8125 16516.015625 22794.492188 14312.382812 20507.5 15066.484375 C 18713.515625 15658.007812 19618.59375 18343.203125 17284.21875 22707.304688 C 16606.992188 23973.398438 15455.898438 25127.5 14272.5 26309.6875 " transform="matrix(0.1, 0, 0, -0.1, 0, 2160)"/>
<path fill="none" stroke-width="50" stroke-linecap="butt" stroke-linejoin="miter" stroke="rgb(0.784302%, 14.892578%, 45.092773%)" stroke-opacity="1" stroke-miterlimit="10" d="M 41021.40625 884.296875 C 37881.40625 1672.890625 36032.890625 3250.898438 35172.382812 3881.210938 C 34253.90625 4553.984375 34416.289062 3795 35061.71875 4496.09375 C 34105.117188 5326.015625 34409.492188 7287.8125 33504.414062 9506.796875 C 33243.203125 10147.304688 32936.015625 10777.617188 32688.59375 11406.40625 C 32095.585938 12912.304688 31542.1875 14323.59375 31189.804688 15189.414062 C 30654.6875 16504.609375 31187.695312 16531.484375 29178.28125 16523.007812 C 29132.382812 16522.890625 29086.210938 16544.101562 29036.796875 16543.28125 C 26437.382812 16499.882812 22587.382812 14300.78125 20347.109375 15078.59375 C 18570.585938 15695.3125 19700.585938 18463.789062 17396.71875 22814.101562 C 16721.289062 24089.414062 15542.382812 25233.203125 14330 26392.890625 " transform="matrix(0.1, 0, 0, -0.1, 0, 2160)"/>
<path fill="none" stroke-width="50" stroke-linecap="butt" stroke-linejoin="miter" stroke="rgb(0.784302%, 15.696716%, 45.483398%)" stroke-opacity="1" stroke-miterlimit="10" d="M 40706.796875 791.992188 C 37510.195312 1628.007812 35671.09375 3291.484375 34855.117188 3957.1875 C 33996.601562 4657.617188 34258.710938 3848.28125 35022.1875 4576.71875 C 34205.390625 5421.210938 34635.703125 7440.703125 33742.109375 9732.695312 C 33488.203125 10384.21875 33180.390625 11026.71875 32927.5 11665.390625 C 32321.09375 13195.390625 31723.28125 14615 31323.203125 15466.015625 C 30724.101562 16740.3125 31230.507812 16683.203125 29137.1875 16599.296875 C 29090.507812 16597.382812 29042.890625 16616.796875 28992.8125 16614.414062 C 26297.617188 16481.601562 22380.3125 14289.804688 20186.796875 15090.703125 C 18427.5 15733.007812 19782.8125 18584.492188 17509.21875 22920.898438 C 16835.585938 24205.585938 15628.90625 25338.90625 14387.5 26476.09375 " transform="matrix(0.1, 0, 0, -0.1, 0, 2160)"/>
<path fill="none" stroke-width="50" stroke-linecap="butt" stroke-linejoin="miter" stroke="rgb(0.784302%, 16.479492%, 46.263123%)" stroke-opacity="1" stroke-miterlimit="10" d="M 40392.1875 699.6875 C 37138.90625 1583.085938 35309.414062 3331.015625 34537.8125 4033.203125 C 33739.21875 4760 34101.09375 3901.71875 34982.695312 4657.1875 C 34305.703125 5516.289062 34861.40625 7593.515625 33979.882812 9958.59375 C 33733.007812 10621.09375 33424.882812 11275.703125 33166.40625 11924.296875 C 32546.484375 13478.515625 31905.117188 14906.484375 31456.601562 15742.617188 C 30794.6875 16976.210938 31272.5 16836.914062 29096.015625 16675.585938 C 29048.710938 16672.109375 28999.609375 16689.492188 28948.789062 16685.390625 C 26158.398438 16461.210938 22173.203125 14279.414062 20026.484375 15102.8125 C 18284.414062 15771.015625 19865.3125 18705.390625 17621.71875 23027.617188 C 16950 24321.71875 15715.390625 25444.492188 14445 26559.21875 " transform="matrix(0.1, 0, 0, -0.1, 0, 2160)"/>
<path fill="none" stroke-width="50" stroke-linecap="butt" stroke-linejoin="miter" stroke="rgb(0.784302%, 17.259216%, 46.655273%)" stroke-opacity="1" stroke-miterlimit="10" d="M 40077.617188 607.5 C 36767.617188 1538.203125 34947.695312 3369.21875 34220.507812 4109.21875 C 33481.484375 4861.015625 33943.515625 3955 34943.203125 4737.8125 C 34406.015625 5611.484375 35086.40625 7746.09375 34217.617188 10184.492188 C 33977.617188 10857.890625 33669.296875 11524.6875 33405.3125 12183.28125 C 32771.992188 13761.601562 32087.695312 15198.28125 31589.882812 16019.21875 C 30866.289062 17212.5 31313.59375 16992.617188 29054.804688 16751.796875 C 29006.796875 16746.71875 28956.289062 16762.109375 28904.882812 16756.40625 C 26020.117188 16438.789062 21966.09375 14269.492188 19866.09375 15114.882812 C 18141.210938 15809.296875 19947.890625 18826.40625 17734.21875 23134.414062 C 17064.414062 24437.890625 15801.914062 25550.195312 14502.382812 26642.382812 " transform="matrix(0.1, 0, 0, -0.1, 0, 2160)"/>
<path fill="none" stroke-width="50" stroke-linecap="butt" stroke-linejoin="miter" stroke="rgb(0.784302%, 18.041992%, 47.459412%)" stroke-opacity="1" stroke-miterlimit="10" d="M 39762.890625 515.195312 C 36396.40625 1493.28125 34585.78125 3406.289062 33903.203125 4185.117188 C 33223.398438 4960.703125 33785.898438 4008.28125 34903.710938 4818.398438 C 34506.289062 5706.601562 35311.015625 7898.59375 34455.3125 10410.390625 C 34222.1875 11094.6875 33913.789062 11773.789062 33644.21875 12442.1875 C 32997.382812 14044.6875 32270.898438 15490.390625 31723.28125 16295.703125 C 30938.984375 17449.21875 31353.710938 17149.882812 29013.710938 16828.085938 C 28964.882812 16821.40625 28913.007812 16834.6875 28860.898438 16827.5 C 25882.617188 16414.6875 21759.101562 14260.117188 19705.78125 15126.992188 C 17998.007812 15848.007812 20030.78125 18947.382812 17846.71875 23241.210938 C 17178.90625 24554.101562 15888.398438 25655.898438 14559.882812 26725.585938 " transform="matrix(0.1, 0, 0, -0.1, 0, 2160)"/>
<path fill="none" stroke-width="50" stroke-linecap="butt" stroke-linejoin="miter" stroke="rgb(0.784302%, 18.821716%, 47.851562%)" stroke-opacity="1" stroke-miterlimit="10" d="M 39448.28125 422.890625 C 36025.117188 1448.398438 34223.515625 3442.1875 33585.898438 4261.09375 C 32964.609375 5059.101562 33628.28125 4061.71875 34864.21875 4898.984375 C 34606.601562 5801.796875 35535 8051.015625 34693.007812 10636.289062 C 34466.601562 11331.484375 34158.28125 12022.8125 33883.085938 12701.210938 C 33222.890625 14327.8125 32454.6875 15782.890625 31856.71875 16572.304688 C 31012.5 17686.601562 31392.695312 17308.710938 28972.5 16904.296875 C 28922.890625 16896.015625 28869.804688 16907.304688 28816.914062 16898.515625 C 25746.09375 16388.90625 21552.109375 14251.289062 19545.507812 15139.101562 C 17854.804688 15887.109375 20113.789062 19068.59375 17959.21875 23347.890625 C 17293.398438 24670.3125 15974.804688 25761.601562 14617.382812 26808.789062 " transform="matrix(0.1, 0, 0, -0.1, 0, 2160)"/>
<path fill="none" stroke-width="50" stroke-linecap="butt" stroke-linejoin="miter" stroke="rgb(0.784302%, 19.604492%, 48.631287%)" stroke-opacity="1" stroke-miterlimit="10" d="M 39133.710938 330.703125 C 35653.789062 1403.515625 33860.3125 3476.992188 33268.59375 4337.109375 C 32705 5156.289062 33470.585938 4115 34824.6875 4979.609375 C 34706.914062 5896.914062 35758.515625 8203.28125 34930.78125 10862.1875 C 34710.898438 11568.28125 34402.695312 12271.796875 34122.109375 12960.117188 C 33448.398438 14610.898438 32639.101562 16075.898438 31990 16848.90625 C 31086.71875 17924.6875 31430.78125 17468.789062 28931.289062 16980.585938 C 28880.898438 16970.703125 28826.484375 16979.804688 28773.007812 16969.492188 C 25610.585938 16361.71875 21345.3125 14243.007812 19385.117188 15151.210938 C 17711.71875 15926.484375 20196.992188 19189.882812 18071.71875 23454.6875 C 17408.007812 24786.484375 16061.289062 25867.1875 14674.882812 26891.992188 " transform="matrix(0.1, 0, 0, -0.1, 0, 2160)"/>
<path fill="none" stroke-width="50" stroke-linecap="butt" stroke-linejoin="miter" stroke="rgb(0.784302%, 20.384216%, 49.021912%)" stroke-opacity="1" stroke-miterlimit="10" d="M 38819.101562 238.398438 C 35282.617188 1358.59375 33496.210938 3510.703125 32951.289062 4413.007812 C 32444.296875 5252.5 33313.007812 4168.28125 34785.117188 5060.117188 C 34807.1875 5992.109375 35981.484375 8355.585938 35168.515625 11088.085938 C 34955.117188 11805.117188 34647.1875 12520.898438 34361.015625 13219.101562 C 33673.789062 14893.90625 32823.90625 16369.492188 32123.398438 17125.390625 C 31161.484375 18163.515625 31467.8125 17630 28890.195312 17056.796875 C 28838.984375 17045.390625 28783.28125 17052.382812 28728.984375 17040.585938 C 25476.09375 16333.28125 21138.515625 14235.3125 19224.804688 15163.28125 C 17568.515625 15966.40625 20280.390625 19311.289062 18184.21875 23561.484375 C 17522.617188 24902.8125 16147.8125 25972.890625 14732.382812 26975.195312 " transform="matrix(0.1, 0, 0, -0.1, 0, 2160)"/>
<path fill="none" stroke-width="50" stroke-linecap="butt" stroke-linejoin="miter" stroke="rgb(0.784302%, 21.166992%, 49.804688%)" stroke-opacity="1" stroke-miterlimit="10" d="M 38504.492188 146.09375 C 34911.289062 1313.710938 33130.898438 3543.59375 32633.984375 4488.984375 C 32182.5 5347.890625 33155.390625 4221.71875 34745.585938 5140.703125 C 34907.5 6087.1875 36204.101562 8507.890625 35406.210938 11313.984375 C 35199.21875 12041.914062 34891.601562 12769.882812 34599.882812 13478.007812 C 33899.296875 15176.992188 33009.101562 16663.710938 32256.796875 17401.992188 C 31236.71875 18403.203125 31503.789062 17792.1875 28848.984375 17133.085938 C 28796.992188 17120.195312 28740.117188 17124.882812 28685 17111.601562 C 25342.5 16303.710938 20931.914062 14228.203125 19064.492188 15175.390625 C 17425.507812 16006.601562 20363.984375 19432.8125 18296.601562 23668.28125 C 17637.304688 25019.101562 16234.296875 26078.59375 14789.804688 27058.398438 " transform="matrix(0.1, 0, 0, -0.1, 0, 2160)"/>
<path fill="none" stroke-width="50" stroke-linecap="butt" stroke-linejoin="miter" stroke="rgb(1.177979%, 21.556091%, 50.193787%)" stroke-opacity="1" stroke-miterlimit="10" d="M 38189.804688 53.90625 C 34540 1268.789062 32764.21875 3575.898438 32316.71875 4565 C 31919.492188 5442.8125 32997.8125 4275 34706.09375 5221.289062 C 35007.8125 6182.382812 36426.210938 8660.117188 35643.984375 11539.804688 C 35443.28125 12278.710938 35136.09375 13018.90625 34838.789062 13736.914062 C 34124.6875 15460.117188 33194.492188 16958.59375 32390.117188 17678.59375 C 31312.109375 18643.59375 31538.789062 17955.3125 28807.8125 17209.296875 C 28754.882812 17194.882812 28696.914062 17197.382812 28641.09375 17182.617188 C 25210 16273.085938 20725.507812 14221.601562 18904.101562 15187.5 C 17282.617188 16047.304688 20447.8125 19554.414062 18409.101562 23775 C 17751.992188 25135.507812 16320.78125 26184.296875 14847.304688 27141.601562 " transform="matrix(0.1, 0, 0, -0.1, 0, 2160)"/>
<path fill="none" stroke-width="50" stroke-linecap="butt" stroke-linejoin="miter" stroke="rgb(1.177979%, 22.363281%, 50.976562%)" stroke-opacity="1" stroke-miterlimit="10" d="M 37875.195312 -38.398438 C 34168.789062 1223.984375 32396.09375 3607.8125 31999.414062 4641.015625 C 31655.3125 5537.304688 32840.195312 4328.398438 34666.601562 5301.914062 C 35108.007812 6277.5 36647.8125 8812.304688 35881.71875 11765.703125 C 35687.1875 12515.507812 35380.507812 13268.007812 35077.695312 13995.898438 C 34350.195312 15743.203125 33380 17253.984375 32523.515625 17955.195312 C 31387.695312 18884.882812 31572.890625 18118.984375 28766.601562 17285.585938 C 28712.890625 17269.609375 28653.710938 17270 28597.109375 17253.710938 C 25078.398438 16241.601562 20519.296875 14215.585938 18743.789062 15199.609375 C 17139.804688 16088.515625 20531.71875 19676.09375 18521.601562 23881.796875 C 17866.796875 25251.796875 16407.304688 26289.882812 14904.804688 27224.804688 " transform="matrix(0.1, 0, 0, -0.1, 0, 2160)"/>
<path fill="none" stroke-width="50" stroke-linecap="butt" stroke-linejoin="miter" stroke="rgb(1.177979%, 23.143005%, 51.367188%)" stroke-opacity="1" stroke-miterlimit="10" d="M 37560.585938 -130.703125 C 33797.5 1179.101562 32026.40625 3639.492188 31682.109375 4716.914062 C 31389.804688 5631.796875 32682.617188 4381.71875 34627.109375 5382.382812 C 35208.28125 6372.695312 36869.101562 8964.609375 36119.414062 11991.601562 C 35931.015625 12752.304688 35625 13516.992188 35316.601562 14254.804688 C 34575.703125 16026.289062 33565.703125 17550.117188 32656.914062 18231.71875 C 31463.28125 19126.796875 31606.210938 18283.398438 28725.507812 17361.914062 C 28670.78125 17344.414062 28610.585938 17342.5 28553.085938 17324.6875 C 24947.695312 16209.296875 20313.28125 14210.117188 18583.398438 15211.71875 C 16997.1875 16130.117188 20615.78125 19797.8125 18634.101562 23988.59375 C 17981.71875 25368.203125 16493.789062 26395.585938 14962.304688 27308.007812 " transform="matrix(0.1, 0, 0, -0.1, 0, 2160)"/>
<path fill="none" stroke-width="50" stroke-linecap="butt" stroke-linejoin="miter" stroke="rgb(1.177979%, 23.925781%, 52.146912%)" stroke-opacity="1" stroke-miterlimit="10" d="M 37246.015625 -222.890625 C 33426.289062 1134.21875 31655.117188 3671.289062 31364.804688 4792.890625 C 31123.203125 5726.40625 32525 4435 34587.617188 5463.007812 C 35308.59375 6467.8125 37089.882812 9116.796875 36357.109375 12217.5 C 36174.804688 12989.101562 35869.492188 13766.015625 35555.507812 14513.789062 C 34801.09375 16309.414062 33751.40625 17846.796875 32790.195312 18508.28125 C 31538.90625 19369.492188 31638.515625 18448.203125 28684.296875 17438.085938 C 28628.710938 17419.101562 28567.382812 17415 28509.101562 17395.703125 C 24817.890625 16176.40625 20107.5 14205.195312 18423.085938 15223.789062 C 16854.804688 16172.109375 20700.195312 19919.6875 18746.601562 24095.3125 C 18096.601562 25484.6875 16580.3125 26501.289062 15019.6875 27391.210938 " transform="matrix(0.1, 0, 0, -0.1, 0, 2160)"/>
<path fill="none" stroke-width="50" stroke-linecap="butt" stroke-linejoin="miter" stroke="rgb(1.177979%, 24.705505%, 52.539062%)" stroke-opacity="1" stroke-miterlimit="10" d="M 36931.289062 -315.195312 C 33055 1089.296875 31282.5 3703.398438 31047.5 4868.90625 C 30855.507812 5821.40625 32367.304688 4488.398438 34548.085938 5543.59375 C 35408.90625 6563.007812 37310.3125 9269.101562 36594.882812 12443.398438 C 36418.515625 13226.015625 36113.90625 14015.117188 35794.414062 14772.695312 C 35026.601562 16592.5 33936.992188 18143.984375 32923.59375 18784.882812 C 31614.296875 19612.890625 31670.117188 18613.398438 28643.085938 17514.414062 C 28586.601562 17493.789062 28524.296875 17487.5 28465.195312 17466.796875 C 24688.984375 16143.007812 19902.109375 14200.78125 18262.8125 15235.898438 C 16712.695312 16214.609375 20784.6875 20041.601562 18859.101562 24202.109375 C 18211.601562 25601.09375 16666.796875 26606.992188 15077.1875 27474.414062 " transform="matrix(0.1, 0, 0, -0.1, 0, 2160)"/>
<path fill="none" stroke-width="50" stroke-linecap="butt" stroke-linejoin="miter" stroke="rgb(1.177979%, 25.488281%, 53.318787%)" stroke-opacity="1" stroke-miterlimit="10" d="M 36616.71875 -407.5 C 32683.710938 1044.414062 30908.398438 3736.015625 30730.195312 4944.804688 C 30586.914062 5916.914062 32209.6875 4541.71875 34508.59375 5624.21875 C 35509.21875 6658.085938 37530.3125 9421.40625 36832.617188 12669.296875 C 36662.109375 13462.890625 36358.398438 14264.101562 36033.28125 15031.71875 C 35251.992188 16875.585938 34122.5 18441.71875 33056.992188 19061.40625 C 31689.414062 19856.796875 31701.015625 18778.984375 28601.992188 17590.585938 C 28544.492188 17568.59375 28481.210938 17560 28421.210938 17537.8125 C 24560.898438 16108.984375 19696.914062 14196.796875 18102.382812 15248.007812 C 16570.898438 16257.617188 20869.296875 20163.59375 18971.601562 24308.90625 C 18326.71875 25717.617188 16753.28125 26712.695312 15134.6875 27557.617188 " transform="matrix(0.1, 0, 0, -0.1, 0, 2160)"/>
<path fill="none" stroke-width="50" stroke-linecap="butt" stroke-linejoin="miter" stroke="rgb(1.177979%, 26.268005%, 53.709412%)" stroke-opacity="1" stroke-miterlimit="10" d="M 36302.109375 -499.6875 C 32312.5 999.492188 30533.203125 3769.21875 30412.890625 5020.78125 C 30317.617188 6013.007812 32254.609375 4231.796875 34469.101562 5704.6875 C 35758.984375 6562.695312 37750 9573.710938 37070.3125 12895.195312 C 36905.703125 13699.804688 36602.8125 14513.085938 36272.1875 15290.585938 C 35477.5 17158.710938 34307.890625 18739.882812 33190.3125 19338.007812 C 31764.296875 20101.289062 31731.09375 18944.804688 28560.78125 17666.914062 C 28502.304688 17643.28125 28438.085938 17632.5 28377.1875 17608.789062 C 24433.515625 16074.6875 19492.109375 14193.398438 17942.109375 15260.117188 C 16429.414062 16301.09375 20954.21875 20285.585938 19084.101562 24415.703125 C 18441.796875 25834.101562 16839.6875 26818.28125 15192.1875 27640.78125 " transform="matrix(0.1, 0, 0, -0.1, 0, 2160)"/>
<path fill="none" stroke-width="50" stroke-linecap="butt" stroke-linejoin="miter" stroke="rgb(1.177979%, 27.050781%, 54.492188%)" stroke-opacity="1" stroke-miterlimit="10" d="M 35987.5 -591.992188 C 31941.210938 954.609375 30156.914062 3803.203125 30095.585938 5096.796875 C 30047.617188 6109.804688 32071.71875 4315.78125 34429.609375 5785.3125 C 35841.914062 6665.507812 37969.296875 9726.09375 37308.007812 13121.09375 C 37149.21875 13936.71875 36847.304688 14762.1875 36511.09375 15549.609375 C 35703.007812 17441.796875 34493.085938 19038.398438 33323.710938 19614.609375 C 31838.90625 20346.210938 31760.703125 19110.898438 28519.609375 17743.085938 C 28460.195312 17718.007812 28395 17705 28333.28125 17679.882812 C 24306.914062 16040 19287.695312 14190.390625 17781.796875 15272.1875 C 16288.28125 16345 21039.21875 20407.695312 19196.601562 24522.382812 C 18556.992188 25950.703125 16926.210938 26923.984375 15249.6875 27723.90625 " transform="matrix(0.1, 0, 0, -0.1, 0, 2160)"/>
<path fill="none" stroke-width="50" stroke-linecap="butt" stroke-linejoin="miter" stroke="rgb(1.177979%, 27.830505%, 54.881287%)" stroke-opacity="1" stroke-miterlimit="10" d="M 35672.890625 -684.296875 C 31569.882812 909.6875 29779.804688 3837.890625 29778.28125 5172.8125 C 29777.1875 6207.382812 31892.1875 4397.8125 34390.117188 5865.898438 C 35926.992188 6769.21875 38188.28125 9878.515625 37545.78125 13346.992188 C 37392.617188 14173.59375 37091.71875 15011.210938 36750 15808.515625 C 35928.398438 17724.882812 34678.085938 19337.304688 33457.109375 19891.210938 C 31913.203125 20591.484375 31789.609375 19276.992188 28478.515625 17819.414062 C 28418.007812 17792.8125 28351.914062 17777.5 28289.296875 17750.898438 C 24180.898438 16005 19083.59375 14187.8125 17621.40625 15284.296875 C 16147.617188 16389.414062 21124.414062 20529.882812 19309.101562 24629.21875 C 18672.304688 26067.1875 17012.695312 27029.6875 15307.109375 27807.109375 " transform="matrix(0.1, 0, 0, -0.1, 0, 2160)"/>
<path fill="none" stroke-width="50" stroke-linecap="butt" stroke-linejoin="miter" stroke="rgb(1.177979%, 28.637695%, 55.664062%)" stroke-opacity="1" stroke-miterlimit="10" d="M 35358.203125 -776.601562 C 31198.710938 864.804688 29402.109375 3873.515625 29461.015625 5248.710938 C 29506.289062 6305.703125 31715.585938 4477.890625 34350.585938 5946.484375 C 36013.90625 6873.515625 38406.992188 10031.015625 37783.515625 13572.890625 C 37636.015625 14410.585938 37336.210938 15260.195312 36988.984375 16067.5 C 36153.90625 18008.007812 34862.890625 19636.40625 33590.390625 20167.695312 C 31987.109375 20837.109375 31817.890625 19443.28125 28437.304688 17895.585938 C 28375.78125 17867.5 28308.90625 17850.117188 28245.3125 17821.914062 C 24055.703125 15969.804688 18880 14185.703125 17461.09375 15296.40625 C 16007.382812 16434.296875 21209.804688 20652.1875 19421.601562 24736.015625 C 18787.617188 26183.789062 17099.21875 27135.390625 15364.609375 27890.3125 " transform="matrix(0.1, 0, 0, -0.1, 0, 2160)"/>
<path fill="none" stroke-width="50" stroke-linecap="butt" stroke-linejoin="miter" stroke="rgb(1.177979%, 29.026794%, 56.054688%)" stroke-opacity="1" stroke-miterlimit="10" d="M 35043.59375 -868.789062 C 30827.382812 820 29023.789062 3910 29143.710938 5324.6875 C 29235.3125 6404.804688 31541.484375 4556.210938 34311.09375 6027.109375 C 36102.382812 6978.28125 38625.390625 10183.59375 38021.210938 13798.789062 C 37879.414062 14647.617188 37580.585938 15509.296875 37227.890625 16326.40625 C 36379.296875 18291.09375 35047.5 19935.78125 33723.789062 20444.296875 C 32060.703125 21083.085938 31845.78125 19609.6875 28396.09375 17971.914062 C 28333.59375 17942.1875 28265.78125 17922.617188 28201.289062 17893.007812 C 23931.015625 15934.414062 18676.914062 14183.90625 17300.78125 15308.515625 C 15867.695312 16479.6875 21295.3125 20774.492188 19534.101562 24842.695312 C 18903.007812 26300.390625 17185.703125 27241.015625 15422.109375 27973.515625 " transform="matrix(0.1, 0, 0, -0.1, 0, 2160)"/>
<path fill="none" stroke-width="50" stroke-linecap="butt" stroke-linejoin="miter" stroke="rgb(1.177979%, 29.80957%, 56.834412%)" stroke-opacity="1" stroke-miterlimit="10" d="M 34728.984375 -961.09375 C 30456.210938 775.117188 28645.3125 3947.1875 28826.40625 5400.703125 C 28963.984375 6504.609375 31369.414062 4632.890625 34271.601562 6107.617188 C 36192.1875 7083.515625 38843.515625 10336.210938 38258.984375 14024.6875 C 38122.695312 14884.609375 37825.117188 15758.28125 37466.796875 16585.390625 C 36604.804688 18574.21875 35231.914062 20235.507812 33857.1875 20720.898438 C 32133.984375 21329.296875 31873.203125 19776.09375 28355 18048.085938 C 28291.40625 18016.914062 28222.8125 17995.117188 28157.382812 17963.984375 C 23806.796875 15898.789062 18474.21875 14182.382812 17140.390625 15320.585938 C 15728.515625 16525.390625 21381.015625 20896.796875 19646.484375 24949.492188 C 19018.515625 26417.109375 17272.1875 27346.71875 15479.609375 28056.71875 " transform="matrix(0.1, 0, 0, -0.1, 0, 2160)"/>
<path fill="none" stroke-width="50" stroke-linecap="butt" stroke-linejoin="miter" stroke="rgb(1.177979%, 30.589294%, 57.226562%)" stroke-opacity="1" stroke-miterlimit="10" d="M 34414.414062 -1053.398438 C 30084.882812 730.195312 28266.484375 3985.195312 28509.21875 5476.71875 C 28692.695312 6605.117188 31198.90625 4708.28125 34232.109375 6188.203125 C 36283.007812 7188.90625 39061.289062 10488.789062 38496.71875 14250.585938 C 38365.898438 15121.601562 38069.609375 16007.304688 37705.703125 16844.296875 C 36830.3125 18857.1875 35416.015625 20535.3125 33990.507812 20997.382812 C 32206.914062 21575.703125 31900.117188 19942.617188 28313.789062 18124.414062 C 28249.21875 18091.71875 28179.6875 18067.617188 28113.398438 18035.117188 C 23683.203125 15863.085938 18271.992188 14181.210938 16980.117188 15332.695312 C 15590 16571.71875 21466.914062 21019.21875 19758.984375 25056.289062 C 19133.984375 26533.710938 17358.710938 27452.382812 15537.109375 28139.882812 " transform="matrix(0.1, 0, 0, -0.1, 0, 2160)"/>
<path fill="none" stroke-width="50" stroke-linecap="butt" stroke-linejoin="miter" stroke="rgb(1.177979%, 31.37207%, 58.006287%)" stroke-opacity="1" stroke-miterlimit="10" d="M 34099.6875 -1145.585938 C 29713.59375 685.3125 27887.617188 4023.789062 28191.914062 5552.617188 C 28421.40625 6706.210938 31029.804688 4782.304688 34192.617188 6268.789062 C 36374.804688 7294.414062 39278.789062 10641.601562 38734.414062 14476.40625 C 38609.21875 15358.710938 38313.984375 16256.289062 37944.609375 17103.28125 C 37055.703125 19140.3125 35600 20835.195312 34123.90625 21273.984375 C 32279.492188 21822.304688 31926.71875 20108.984375 28272.617188 18200.703125 C 28206.992188 18166.40625 28136.71875 18140.117188 28069.414062 18106.09375 C 23560.117188 15827.304688 18070.3125 14180.3125 16819.6875 15344.804688 C 15452.109375 16618.28125 21552.890625 21141.71875 19871.484375 25163.007812 C 19249.609375 26650.390625 17445.195312 27558.085938 15594.492188 28223.085938 " transform="matrix(0.1, 0, 0, -0.1, 0, 2160)"/>
<path fill="none" stroke-width="50" stroke-linecap="butt" stroke-linejoin="miter" stroke="rgb(1.177979%, 32.151794%, 58.396912%)" stroke-opacity="1" stroke-miterlimit="10" d="M 33785.117188 -1237.890625 C 29342.382812 640.390625 27508.710938 4063.203125 27874.609375 5628.59375 C 28150.195312 6807.890625 30861.796875 4855.195312 34153.085938 6349.414062 C 36467.304688 7400 39496.09375 10794.414062 38972.109375 14702.304688 C 38852.382812 15595.78125 38558.515625 16505.390625 38183.515625 17362.1875 C 37281.210938 19423.398438 35783.710938 21135.195312 34257.304688 21550.585938 C 32351.796875 22068.984375 31952.890625 20275.507812 28231.40625 18276.914062 C 28164.804688 18241.09375 28093.710938 18212.617188 28025.507812 18177.109375 C 23437.5 15791.484375 17869.21875 14179.609375 16659.414062 15356.914062 C 15314.882812 16665.3125 21639.101562 21264.21875 19983.984375 25269.804688 C 19365.390625 26767.109375 17531.71875 27663.789062 15651.992188 28306.289062 " transform="matrix(0.1, 0, 0, -0.1, 0, 2160)"/>
<path fill="none" stroke-width="50" stroke-linecap="butt" stroke-linejoin="miter" stroke="rgb(1.177979%, 32.93457%, 59.179688%)" stroke-opacity="1" stroke-miterlimit="10" d="M 33470.507812 -1330.195312 C 28971.09375 595.507812 27129.882812 4103.085938 27557.304688 5704.609375 C 27878.984375 6910.195312 30694.882812 4926.992188 34113.59375 6429.882812 C 36560.585938 7505.703125 39713.085938 10947.304688 39209.882812 14928.203125 C 39095.507812 15832.890625 38802.890625 16754.414062 38422.382812 17621.210938 C 37506.71875 19706.484375 35967.304688 21435.390625 34390.585938 21827.109375 C 32423.90625 22315.78125 31978.710938 20441.914062 28190.3125 18353.203125 C 28122.5 18315.78125 28050.703125 18285.117188 27981.484375 18248.203125 C 23315.3125 15755.585938 17668.59375 14179.101562 16499.101562 15368.984375 C 15178.398438 16712.695312 21725.390625 21386.71875 20096.484375 25376.601562 C 19481.09375 26883.90625 17618.203125 27769.414062 15709.492188 28389.492188 " transform="matrix(0.1, 0, 0, -0.1, 0, 2160)"/>
<path fill="none" stroke-width="50" stroke-linecap="butt" stroke-linejoin="miter" stroke="rgb(1.177979%, 33.714294%, 59.568787%)" stroke-opacity="1" stroke-miterlimit="10" d="M 33155.898438 -1422.382812 C 28599.804688 550.585938 26751.210938 4143.59375 27240 5780.507812 C 27607.890625 7012.890625 30528.789062 4998.007812 34074.101562 6510.507812 C 36654.414062 7611.289062 39930 11100.195312 39447.617188 15154.101562 C 39338.59375 16070 39047.382812 17003.398438 38661.289062 17880.117188 C 37732.109375 19989.609375 36150.585938 21735.585938 34523.984375 22103.710938 C 32495.585938 22562.8125 32004.21875 20608.203125 28149.101562 18429.414062 C 28080.3125 18390.507812 28007.695312 18357.695312 27937.5 18319.21875 C 23193.515625 15719.6875 17468.515625 14178.59375 16338.710938 15381.09375 C 15042.695312 16760.390625 21811.914062 21509.296875 20208.984375 25483.398438 C 19596.992188 27000.585938 17704.609375 27875.117188 15766.992188 28472.695312 " transform="matrix(0.1, 0, 0, -0.1, 0, 2160)"/>
<path fill="none" stroke-width="50" stroke-linecap="butt" stroke-linejoin="miter" stroke="rgb(1.177979%, 34.521484%, 60.351562%)" stroke-opacity="1" stroke-miterlimit="10" d="M 32841.289062 -1514.6875 C 28228.59375 505.703125 26372.617188 4184.492188 26922.695312 5856.484375 C 27336.992188 7116.09375 30363.398438 5068.085938 34034.609375 6591.09375 C 36748.710938 7716.992188 40146.484375 11253.203125 39685.3125 15380 C 39581.71875 16307.1875 39291.796875 17252.5 38900.195312 18139.101562 C 37957.617188 20272.695312 36333.789062 22035.78125 34657.382812 22380.3125 C 32567.109375 22809.804688 32029.414062 20774.609375 28107.890625 18505.703125 C 28038.007812 18465.195312 27964.6875 18430.195312 27893.59375 18390.195312 C 23072.109375 15683.710938 17269.101562 14178.28125 16178.398438 15393.203125 C 14907.8125 16808.515625 21898.59375 21631.914062 20321.484375 25590.117188 C 19713.007812 27117.382812 17791.09375 27980.78125 15824.492188 28555.898438 " transform="matrix(0.1, 0, 0, -0.1, 0, 2160)"/>
<path fill="none" stroke-width="50" stroke-linecap="butt" stroke-linejoin="miter" stroke="rgb(1.177979%, 35.301208%, 60.742188%)" stroke-opacity="1" stroke-miterlimit="10" d="M 32526.601562 -1606.992188 C 27857.304688 460.820312 25994.296875 4225.78125 26605.390625 5932.5 C 27066.210938 7219.609375 30198.710938 5137.5 33995.117188 6671.71875 C 36843.398438 7822.695312 40362.890625 11406.289062 39923.007812 15605.898438 C 39824.804688 16544.414062 39536.289062 17501.484375 39139.101562 18398.007812 C 38183.007812 20555.78125 36516.796875 22336.09375 34790.703125 22656.914062 C 32638.398438 23056.796875 32054.414062 20940.78125 28066.796875 18581.914062 C 27995.78125 18539.882812 27921.71875 18502.695312 27849.609375 18461.289062 C 22951.015625 15647.8125 17070.3125 14177.890625 16018.085938 15405.3125 C 14773.789062 16856.796875 21985.390625 21754.492188 20433.984375 25696.914062 C 19828.984375 27234.21875 17877.617188 28086.40625 15881.914062 28639.101562 " transform="matrix(0.1, 0, 0, -0.1, 0, 2160)"/>
<path fill="none" stroke-width="50" stroke-linecap="butt" stroke-linejoin="miter" stroke="rgb(1.177979%, 36.083984%, 61.521912%)" stroke-opacity="1" stroke-miterlimit="10" d="M 32211.992188 -1699.21875 C 27486.015625 415.898438 25616.09375 4267.5 26288.085938 6008.515625 C 26795.585938 7323.515625 30034.492188 5206.289062 33955.585938 6752.304688 C 36938.515625 7928.28125 40579.101562 11559.492188 40160.78125 15831.796875 C 40067.8125 16781.601562 39780.78125 17750.507812 39378.007812 18656.992188 C 38408.515625 20838.90625 36699.6875 22636.40625 34924.101562 22933.398438 C 32709.492188 23303.90625 32079.101562 21106.992188 28025.585938 18658.203125 C 27953.515625 18614.6875 27878.710938 18575.195312 27805.585938 18532.304688 C 22830.195312 15611.914062 16871.992188 14177.5 15857.695312 15417.382812 C 14640.585938 16905.3125 22072.382812 21877.1875 20546.484375 25803.710938 C 19945.117188 27351.09375 17964.101562 28192.109375 15939.414062 28722.304688 " transform="matrix(0.1, 0, 0, -0.1, 0, 2160)"/>
<path fill="none" stroke-width="50" stroke-linecap="butt" stroke-linejoin="miter" stroke="rgb(1.177979%, 36.473083%, 61.914062%)" stroke-opacity="1" stroke-miterlimit="10" d="M 31897.382812 -1791.484375 C 27114.804688 371.09375 25238.203125 4309.492188 25970.78125 6084.414062 C 26525.195312 7427.617188 29870.78125 5274.492188 33916.09375 6832.8125 C 37033.984375 8033.90625 40795 11712.695312 40398.515625 16057.695312 C 40310.78125 17018.789062 40025.195312 17999.609375 39616.992188 18915.898438 C 38633.984375 21121.992188 36882.382812 22936.796875 35057.5 23210 C 32780.3125 23550.898438 32103.515625 21273.085938 27984.414062 18734.414062 C 27911.289062 18689.414062 27835.78125 18647.8125 27761.601562 18603.28125 C 22709.804688 15576.015625 16674.414062 14177.109375 15697.382812 15429.492188 C 14508.203125 16953.90625 22159.492188 21999.804688 20658.984375 25910.390625 C 20061.289062 27467.890625 18050.585938 28297.8125 15996.914062 28805.507812 " transform="matrix(0.1, 0, 0, -0.1, 0, 2160)"/>
<path fill="none" stroke-width="50" stroke-linecap="butt" stroke-linejoin="miter" stroke="rgb(1.177979%, 37.255859%, 62.693787%)" stroke-opacity="1" stroke-miterlimit="10" d="M 31582.8125 -1883.789062 C 26743.515625 326.210938 24860.390625 4351.71875 25653.515625 6160.390625 C 26254.882812 7532.109375 29707.5 5342.109375 33876.601562 6913.398438 C 37129.6875 8139.492188 41010.78125 11866.09375 40636.210938 16283.59375 C 40553.789062 17256.09375 40269.6875 18248.59375 39855.898438 19174.882812 C 38859.414062 21405.117188 37065 23237.109375 35190.78125 23486.601562 C 32850.898438 23798.085938 32127.8125 21439.21875 27943.28125 18810.703125 C 27868.984375 18764.101562 27792.8125 18720.3125 27717.695312 18674.414062 C 22589.609375 15540.195312 16477.304688 14176.40625 15537.109375 15441.601562 C 14376.796875 17002.695312 22246.796875 22122.617188 20771.484375 26017.1875 C 20177.617188 27584.804688 18137.109375 28403.515625 16054.414062 28888.710938 " transform="matrix(0.1, 0, 0, -0.1, 0, 2160)"/>
<path fill="none" stroke-width="50" stroke-linecap="butt" stroke-linejoin="miter" stroke="rgb(1.177979%, 38.035583%, 63.084412%)" stroke-opacity="1" stroke-miterlimit="10" d="M 31268.203125 -1976.015625 C 26372.304688 281.289062 24482.890625 4394.21875 25336.210938 6236.40625 C 25984.804688 7636.71875 29544.492188 5409.296875 33837.109375 6993.984375 C 37225.703125 8245 41226.484375 12019.414062 40873.984375 16509.492188 C 40796.71875 17493.398438 40514.101562 18497.617188 40094.804688 19433.789062 C 39084.882812 21688.203125 37247.382812 23537.382812 35324.21875 23763.085938 C 32921.40625 24045.195312 32151.796875 21605.195312 27902.109375 18886.914062 C 27826.71875 18838.789062 27749.804688 18792.8125 27673.710938 18745.390625 C 22469.804688 15504.414062 16280.898438 14175.703125 15376.71875 15453.710938 C 14246.289062 17051.601562 22334.296875 22245.3125 20883.984375 26123.984375 C 20293.984375 27701.71875 18223.59375 28509.21875 16111.914062 28971.914062 " transform="matrix(0.1, 0, 0, -0.1, 0, 2160)"/>
<path fill="none" stroke-width="50" stroke-linecap="butt" stroke-linejoin="miter" stroke="rgb(1.177979%, 38.818359%, 63.867188%)" stroke-opacity="1" stroke-miterlimit="10" d="M 30953.515625 -2068.28125 C 26001.015625 236.40625 24105.703125 4436.914062 25018.90625 6312.304688 C 25714.804688 7741.601562 29381.914062 5476.09375 33797.617188 7074.609375 C 37321.992188 8350.390625 41441.914062 12172.890625 41111.71875 16735.390625 C 41039.609375 17730.703125 40758.59375 18746.71875 40333.710938 19692.8125 C 39310.3125 21971.289062 37429.6875 23837.695312 35457.5 24039.6875 C 32991.71875 24292.304688 32175.703125 21771.09375 27860.898438 18963.203125 C 27784.414062 18913.398438 27706.796875 18865.390625 27629.6875 18816.40625 C 22350.117188 15468.59375 16085 14174.609375 15216.40625 15465.78125 C 14116.601562 17100.507812 22421.796875 22368.007812 20996.40625 26230.78125 C 20410.507812 27818.59375 18310.117188 28614.804688 16169.296875 29055 " transform="matrix(0.1, 0, 0, -0.1, 0, 2160)"/>
<path fill="none" stroke-width="50" stroke-linecap="butt" stroke-linejoin="miter" stroke="rgb(1.177979%, 39.598083%, 64.256287%)" stroke-opacity="1" stroke-miterlimit="10" d="M 30638.90625 -2160.585938 C 25629.6875 191.484375 23728.59375 4479.804688 24701.601562 6388.28125 C 25445 7846.601562 29219.492188 5542.382812 33758.085938 7155.117188 C 37418.515625 8455.78125 41648.984375 12325.898438 41349.414062 16961.289062 C 41280.78125 17967.890625 41003.007812 18995.703125 40572.617188 19951.71875 C 39535.78125 22254.296875 37612.304688 24141.796875 35590.898438 24316.289062 C 33062.304688 24543.984375 32199.414062 21936.914062 27819.6875 19039.492188 C 27742.1875 18988.085938 27663.90625 18937.890625 27585.78125 18887.5 C 22230.703125 15432.890625 15889.6875 14173.28125 15056.015625 15477.890625 C 13987.890625 17149.414062 22513.90625 22492.304688 21108.90625 26337.5 C 20528.90625 27936.210938 18396.601562 28720.507812 16226.796875 29138.203125 " transform="matrix(0.1, 0, 0, -0.1, 0, 2160)"/>
<path fill="none" stroke-width="50" stroke-linecap="butt" stroke-linejoin="miter" stroke="rgb(1.177979%, 40.380859%, 65.039062%)" stroke-opacity="1" stroke-miterlimit="10" d="M 30324.296875 -2252.890625 C 25258.515625 146.601562 23351.796875 4522.8125 24384.296875 6464.296875 C 25175.390625 7951.796875 29057.382812 5608.398438 33718.59375 7235.703125 C 37515.117188 8561.210938 41872.304688 12480.117188 41587.109375 17187.109375 C 41376.914062 20658.203125 38653.28125 24374.21875 35724.296875 24592.890625 C 33131.914062 24786.40625 32223.007812 22102.695312 27778.59375 19115.703125 C 22299.804688 15433.515625 15706.601562 14152.5 14895.703125 15490 C 13860.117188 17198.203125 22597.5 22613.515625 21221.40625 26444.296875 C 20643.789062 28052.5 18483.085938 28826.210938 16284.296875 29221.40625 " transform="matrix(0.1, 0, 0, -0.1, 0, 2160)"/>
</svg>
